<svg xmlns="http://www.w3.org/2000/svg" viewBox="0 0 21.333 21.333">
  <defs>
    <style>
      .cls-1 {
        opacity: 0.5;
      }

      .cls-2 {
        fill: #00c28c;
      }

      .cls-3 {
        fill: #fff;
      }
    </style>
  </defs>
  <g id="menu_icon_settings" class="cls-1" transform="translate(-45.333 -5.333)">
    <path id="Path_32" data-name="Path 32" class="cls-2" d="M66.667,17.956h-3.2a8.665,8.665,0,0,1-.711,1.956l1.956,1.956-2.844,2.844-1.956-1.956a6.368,6.368,0,0,1-1.956.711v3.2H54.044v-3.2a8.666,8.666,0,0,1-1.956-.711l-1.956,1.956-2.844-2.844,1.956-1.956a6.368,6.368,0,0,1-.711-1.956h-3.2V14.044h3.2a8.666,8.666,0,0,1,.711-1.956l-1.956-1.956,2.844-2.844,1.956,1.956a6.368,6.368,0,0,1,1.956-.711v-3.2h3.911v3.2a8.665,8.665,0,0,1,1.956.711l1.956-1.956,2.844,2.844-1.956,1.956a6.368,6.368,0,0,1,.711,1.956h3.2Z" transform="translate(0)"/>
    <circle id="Ellipse_5" data-name="Ellipse 5" class="cls-3" cx="4.267" cy="4.267" r="4.267" transform="translate(51.733 11.733)"/>
  </g>
</svg>
