<svg xmlns="http://www.w3.org/2000/svg" viewBox="0 0 23.991 19.193">
  <defs>
    <style>
      .cls-1 {
        fill: #00c28c;
      }
    </style>
  </defs>
  <path id="menu_icon_home" class="cls-1" d="M31.879,12.858l-.223.223h-.223l-10.266-8.7-10.712,8.48a.309.309,0,0,1-.446,0c-.223,0-.223,0-.223-.223l-.893-.893a.418.418,0,0,1,0-.67L19.6,2.146a2.027,2.027,0,0,1,2.232,0l3.571,3.124V2.146a.48.48,0,0,1,.446-.446h2.9a.48.48,0,0,1,.446.446V8.172l3.348,2.678a.418.418,0,0,1,0,.67ZM29.424,20a.96.96,0,0,1-.893.893h-5.8v-5.8H18.935v5.8h-5.8A.96.96,0,0,1,12.24,20V12.635h0l8.7-7.141,8.48,7.141h0Z" transform="translate(-8.725 -1.7)"/>
</svg>
