<svg xmlns="http://www.w3.org/2000/svg" viewBox="0 0 20 20">
  <defs>
    <style>
      .cls-1 {
        fill: #00c28c;
      }

      .cls-2 {
        fill: #fff;
      }
    </style>
  </defs>
  <g id="menu_icon_networks" transform="translate(-19 -344)">
    <circle id="Ellipse_21" data-name="Ellipse 21" class="cls-1" cx="10" cy="10" r="10" transform="translate(19 344)"/>
    <path id="Path_144" data-name="Path 144" class="cls-2" d="M5.822,11.112C6.986,12.078,8.138,13.044,9.3,14c.175.151.361.3.535.454a.646.646,0,0,1,.233.826.68.68,0,0,1-.838.349c-.943-.221-1.885-.419-2.84-.628-1.85-.407-3.7-.826-5.563-1.234-.419-.093-.815-.2-.861-.71s.3-.71.687-.884c.8-.372,1.606-.768,2.421-1.141.407-.186.372-.361.058-.605C2.517,9.913,1.9,9.4,1.3,8.889A1.058,1.058,0,0,1,1.26,7.073c.617-.559,1.245-1.106,1.885-1.653.314-.268.3-.431-.081-.617C2.2,4.4,1.365,3.954.516,3.535a.812.812,0,0,1-.559-.861c.058-.442.361-.605.745-.687Q4.926,1.027,9.151.079C9.5,0,9.872-.049,10.07.347s-.093.652-.349.884c-1.187,1.036-2.374,2.06-3.55,3.1-.512.454-.5.466.093.768,1.315.663,2.63,1.327,3.945,1.978.4.2.756.407.768.931,0,.547-.384.756-.8.954-1.257.594-2.525,1.187-3.782,1.792A1.1,1.1,0,0,0,5.822,11.112Zm3.55-3.142C7.836,7.2,6.393,6.48,4.961,5.758a.411.411,0,0,0-.524.081c-.7.617-1.4,1.234-2.095,1.839-.233.2-.221.372.023.57.454.361.884.756,1.338,1.106,1.28,1.012.768.966,2.246.291.687-.314,1.373-.64,2.048-.966A7.05,7.05,0,0,0,9.372,7.969ZM1.924,2.919c.873.442,1.618.8,2.351,1.175a.35.35,0,0,0,.431-.035c.838-.733,1.676-1.478,2.514-2.211-.023-.035-.047-.081-.07-.116C5.45,2.116,3.762,2.5,1.924,2.919ZM7.242,13.975l.07-.1c-.85-.7-1.687-1.4-2.537-2.095a.368.368,0,0,0-.431-.058c-.722.349-1.455.687-2.3,1.094C3.867,13.218,5.555,13.591,7.242,13.975Z" transform="translate(24.049 346.177)"/>
  </g>
</svg>
