<svg xmlns="http://www.w3.org/2000/svg" viewBox="0 0 14.228 19.747">
  <defs>
    <style>
      .cls-1 {
        fill: #00c28c;
        stroke: #00c28c;
      }
    </style>
  </defs>
  <path id="menu_icon_accounts" class="cls-1" d="M6.994,13.325c1.4,1.159,2.778,2.317,4.174,3.462.209.181.433.363.642.544a.775.775,0,0,1,.279.991.816.816,0,0,1-1.005.419c-1.131-.265-2.262-.5-3.406-.754C5.458,17.5,3.239,17,1.005,16.508.5,16.4.028,16.27-.028,15.656S.335,14.8.8,14.595c.963-.447,1.927-.921,2.9-1.368.489-.223.447-.433.07-.726-.74-.614-1.48-1.229-2.206-1.843A1.269,1.269,0,0,1,1.522,8.48c.74-.67,1.494-1.326,2.262-1.982.377-.321.363-.517-.1-.74C2.652,5.269,1.647,4.739.628,4.236A.974.974,0,0,1-.042,3.2c.07-.53.433-.726.893-.824Q5.919,1.228,10.987.09c.419-.1.866-.154,1.1.321s-.112.782-.419,1.061C10.247,2.715,8.823,3.943,7.413,5.186c-.614.544-.6.558.112.921C9.1,6.9,10.68,7.7,12.257,8.48c.475.237.907.489.921,1.117,0,.656-.461.907-.963,1.145-1.508.712-3.029,1.424-4.537,2.15A1.324,1.324,0,0,0,6.994,13.325Zm4.258-3.769C9.409,8.634,7.678,7.768,5.961,6.9a.493.493,0,0,0-.628.1C4.5,7.74,3.658,8.48,2.82,9.206c-.279.237-.265.447.028.684.544.433,1.061.907,1.605,1.326,1.536,1.215.921,1.159,2.694.349.824-.377,1.647-.768,2.457-1.159A8.456,8.456,0,0,0,11.252,9.555ZM2.317,3.5c1.047.53,1.941.963,2.82,1.41a.42.42,0,0,0,.517-.042c1.005-.88,2.01-1.773,3.015-2.652-.028-.042-.056-.1-.084-.14C6.547,2.533,4.523,2.994,2.317,3.5ZM8.7,16.759l.084-.126C7.762,15.8,6.757,14.958,5.738,14.12a.441.441,0,0,0-.517-.07c-.866.419-1.745.824-2.764,1.312C4.649,15.851,6.673,16.3,8.7,16.759Z" transform="translate(0.549 0.468)"/>
</svg>
