<svg xmlns="http://www.w3.org/2000/svg" viewBox="0 0 28.946 35.878">
  <defs>
    <style>
      .cls-1, .cls-2 {
        fill: #b0b2b5;
      }

      .cls-2 {
        font-size: 21px;
        font-family: SourceSansPro-Bold, Source Sans Pro;
        font-weight: 700;
      }
    </style>
  </defs>
  <g id="security_icon_grey" transform="translate(-45.364 -537.639)">
    <g id="Group_28" data-name="Group 28" transform="translate(45.365 537.639)">
      <path id="Path_11" data-name="Path 11" class="cls-1" d="M14.881,0c4.11,1.181,8.235,2.362,12.345,3.559,1.828.534,1.715.129,1.715,2.249v11a19.532,19.532,0,0,1-4.19,12.474,18.789,18.789,0,0,1-9.627,6.5,2.371,2.371,0,0,1-1.343-.016A19.314,19.314,0,0,1,.255,20.143a60.736,60.736,0,0,1-.243-7.669C0,10.047.029,7.588,0,5.145c-.016-.825.259-1.2,1.116-1.424C5.239,2.589,9.348,1.375,13.474.194A2.581,2.581,0,0,0,13.911,0ZM3.815,12.62H3.766v4.611A15.643,15.643,0,0,0,13.555,31.76a2.237,2.237,0,0,0,1.8.016c5.113-2.2,8.446-5.97,9.465-11.455.809-4.287.291-8.656.307-12.992,0-.5-.388-.582-.76-.7C21.272,5.76,18.2,4.87,15.108,4A2.152,2.152,0,0,0,13.83,4Q9.17,5.331,4.494,6.65a.82.82,0,0,0-.712.955C3.831,9.271,3.815,10.953,3.815,12.62Z" transform="translate(0.004)"/>
    </g>
    <text id="_" data-name="!" class="cls-2" transform="translate(55.982 561.441)"><tspan x="0" y="0">!</tspan></text>
  </g>
</svg>
