<svg xmlns="http://www.w3.org/2000/svg" viewBox="0 0 122.041 151.263">
  <defs>
    <style>
      .cls-1, .cls-2 {
        fill: #00c28c;
      }

      .cls-2 {
        font-size: 89px;
        font-family: SourceSansPro-Bold, Source Sans Pro;
        font-weight: 700;
      }
    </style>
  </defs>
  <g id="security_logo_green" transform="translate(-45.364 -537.639)">
    <g id="Group_28" data-name="Group 28" transform="translate(45.365 537.639)">
      <path id="Path_11" data-name="Path 11" class="cls-1" d="M62.754,0C80.08,4.98,97.474,9.959,114.8,15.007c7.708,2.251,7.231.546,7.231,9.482V70.873c0,19.509-5.525,37.244-17.667,52.592a79.214,79.214,0,0,1-40.586,27.421,10,10,0,0,1-5.662-.068c-29.4-8.186-53.069-35.607-57.026-65.893C-.342,74.147.135,63.369.067,52.592,0,42.36.135,31.992,0,21.692c-.068-3.479,1.091-5.048,4.707-6C22.1,10.914,39.426,5.8,56.82.819A10.88,10.88,0,0,0,58.661,0ZM16.1,53.206h-.2V72.646A65.952,65.952,0,0,0,57.161,133.9a9.432,9.432,0,0,0,7.572.068c21.555-9.277,35.607-25.17,39.9-48.294,3.411-18.076,1.228-36.494,1.3-54.775,0-2.115-1.637-2.456-3.206-2.933C89.7,24.284,76.738,20.532,63.709,16.848a9.073,9.073,0,0,0-5.389,0Q38.675,22.476,18.962,28.035c-2.251.614-3.07,1.705-3,4.025C16.165,39.086,16.1,46.18,16.1,53.206Z" transform="translate(0.004)"/>
    </g>
    <text id="_" data-name="!" class="cls-2" transform="translate(90.13 637.453)"><tspan x="0" y="0">!</tspan></text>
  </g>
</svg>
