<svg xmlns="http://www.w3.org/2000/svg" viewBox="0 0 76.788 76.771">
  <defs>
    <style>
      .cls-1 {
        opacity: 0.7;
      }

      .cls-2 {
        fill: #00c28c;
      }
    </style>
  </defs>
  <g id="send" class="cls-1">
    <path id="Path_146" data-name="Path 146" class="cls-2" d="M35.614,9.993a3.5,3.5,0,0,0-1.345,1.081Q19.89,25.417,5.56,39.76c-.961.961-1.994,1.754-3.484,1.3A2.69,2.69,0,0,1,.418,37.141a6.248,6.248,0,0,1,1.129-1.393L35.758,1.537c1.97-1.97,3.435-1.97,5.429.024Q58.3,18.678,75.422,35.772a4.389,4.389,0,0,1,1.345,1.946,2.785,2.785,0,0,1-4.613,2.715c-1.8-1.706-3.556-3.459-5.309-5.213Q54.917,23.291,42.965,11.387c-.432-.432-.793-1.3-1.441-1.033-.529.216-.24,1.081-.24,1.658q-.036,30.451-.024,60.878a9.07,9.07,0,0,1-.1,1.8,2.633,2.633,0,0,1-3,2.138,2.66,2.66,0,0,1-2.5-2.45c-.048-.5-.024-1.033-.024-1.562V11.579C35.614,11.1,35.614,10.618,35.614,9.993Z" transform="translate(-0.076 -0.062)"/>
  </g>
</svg>
