<svg xmlns="http://www.w3.org/2000/svg" viewBox="0 0 25.937 36.334">
  <defs>
    <style>
      .cls-1 {
        fill: #00c28c;
        stroke: #00c28c;
      }
    </style>
  </defs>
  <path id="sm_logo_icon_small" class="cls-1" d="M13.229,25.1c2.632,2.184,5.237,4.369,7.869,6.527.395.342.816.684,1.211,1.026a1.462,1.462,0,0,1,.526,1.869,1.538,1.538,0,0,1-1.895.79c-2.132-.5-4.264-.947-6.422-1.421-4.185-.921-8.369-1.869-12.58-2.79C.99,30.889.1,30.652-.01,29.494c-.132-1.158.684-1.605,1.553-2,1.816-.842,3.632-1.737,5.474-2.579.921-.421.842-.816.132-1.369-1.395-1.158-2.79-2.316-4.158-3.474-1.579-1.369-1.605-2.684-.079-4.106,1.395-1.263,2.816-2.5,4.264-3.737.711-.605.684-.974-.184-1.395C5.044,9.913,3.149,8.913,1.227,7.966A1.836,1.836,0,0,1-.036,6.018C.1,5.018.78,4.649,1.648,4.465Q11.2,2.294,20.756.149c.79-.184,1.632-.29,2.079.605.447.921-.211,1.474-.79,2-2.684,2.342-5.369,4.658-8.027,7-1.158,1.026-1.132,1.053.211,1.737,2.974,1.5,5.948,3,8.922,4.474.895.447,1.711.921,1.737,2.105,0,1.237-.869,1.711-1.816,2.158-2.842,1.342-5.711,2.684-8.554,4.053A2.5,2.5,0,0,0,13.229,25.1Zm8.027-7.106c-3.474-1.737-6.738-3.369-9.975-5a.929.929,0,0,0-1.184.184c-1.579,1.395-3.158,2.79-4.737,4.158-.526.447-.5.842.053,1.29,1.026.816,2,1.711,3.027,2.5,2.9,2.29,1.737,2.184,5.079.658,1.553-.711,3.106-1.448,4.632-2.184A15.942,15.942,0,0,0,21.256,17.993ZM4.412,6.571c1.974,1,3.658,1.816,5.316,2.658A.791.791,0,0,0,10.7,9.15c1.895-1.658,3.79-3.342,5.685-5-.053-.079-.105-.184-.158-.263C12.386,4.755,8.57,5.623,4.412,6.571Zm12.028,25,.158-.237c-1.921-1.579-3.816-3.158-5.737-4.737a.832.832,0,0,0-.974-.132c-1.632.79-3.29,1.553-5.211,2.474C8.807,29.863,12.623,30.7,16.439,31.573Z" transform="translate(0.549 0.457)"/>
</svg>
