<svg xmlns="http://www.w3.org/2000/svg" viewBox="0 0 77.873 14.106">
  <defs>
    <style>
      .cls-1 {
        fill: #fff;
      }
    </style>
  </defs>
  <g id="SM_logo_white" transform="translate(0.049 -0.023)">
    <path id="Path_1" data-name="Path 1" class="cls-1" d="M5.25,10.03c1.05.872,2.09,1.743,3.14,2.6.158.137.326.273.483.41a.583.583,0,0,1,.21.746.614.614,0,0,1-.756.315c-.851-.2-1.7-.378-2.563-.567-1.67-.368-3.34-.746-5.02-1.113-.378-.084-.735-.179-.777-.641s.273-.641.62-.8c.725-.336,1.449-.693,2.184-1.029.368-.168.336-.326.053-.546-.557-.462-1.113-.924-1.659-1.386a.955.955,0,0,1-.032-1.638c.557-.5,1.124-1,1.7-1.491.284-.242.273-.389-.074-.557C1.983,3.97,1.227,3.571.46,3.193a.733.733,0,0,1-.5-.777c.053-.4.326-.546.672-.62Q4.441.929,8.253.074c.315-.074.651-.116.83.242S9,.9,8.768,1.113c-1.071.935-2.142,1.859-3.2,2.794-.462.41-.452.42.084.693,1.187.6,2.374,1.2,3.56,1.785.357.179.683.368.693.84,0,.494-.347.683-.725.861C8.043,8.622,6.9,9.158,5.764,9.7A1,1,0,0,0,5.25,10.03Zm3.2-2.836C7.066,6.5,5.764,5.85,4.472,5.2A.371.371,0,0,0,4,5.272c-.63.557-1.26,1.113-1.89,1.659-.21.179-.2.336.021.515.41.326.8.683,1.208,1,1.155.914.693.872,2.027.263.62-.284,1.239-.578,1.848-.872A6.362,6.362,0,0,0,8.453,7.194ZM1.731,2.636c.788.4,1.46.725,2.121,1.061a.316.316,0,0,0,.389-.032C5,3,5.754,2.332,6.51,1.67c-.021-.032-.042-.074-.063-.105C4.913,1.911,3.391,2.258,1.731,2.636Zm4.8,9.977.063-.095c-.767-.63-1.523-1.26-2.29-1.89a.332.332,0,0,0-.389-.053c-.651.315-1.313.62-2.079.987C3.485,11.931,5.008,12.267,6.531,12.613Z" transform="translate(0 0)"/>
    <path id="Path_2" data-name="Path 2" class="cls-1" d="M468.223,37.047c1.26-1,2.342-.987,3.392.021.242.231.294.063.441-.063a2.366,2.366,0,0,1,3.949.945,3.44,3.44,0,0,1,.147.977c.021,1.1-.01,2.206.011,3.308.01.473-.189.6-.63.6-.42,0-.6-.126-.588-.578.021-1.124.021-2.237,0-3.361a1.3,1.3,0,0,0-1.649-1.4,1.477,1.477,0,0,0-1.113,1.575c-.021,1.029-.021,2.069,0,3.1.011.462-.116.662-.62.662-.525,0-.609-.231-.6-.683.021-1.029.01-2.069,0-3.1s-.4-1.554-1.2-1.586a1.479,1.479,0,0,0-1.575,1.586c-.031,1.029-.01,2.069-.01,3.1,0,.62-.084.672-.7.662-.4,0-.5-.179-.5-.546.011-1.712,0-3.434.011-5.146,0-.252-.116-.62.326-.641C467.7,36.48,468.2,36.312,468.223,37.047Z" transform="translate(-417.971 -32.468)"/>
    <path id="Path_3" data-name="Path 3" class="cls-1" d="M185.433,37.678c1.722-1.271,3.35-1.271,4.537,0a3.467,3.467,0,0,1,.126,4.558c-1.166,1.376-2.752,1.439-4.716.137,0,.9-.021,1.775.011,2.636.01.452-.105.651-.609.651-.536,0-.6-.252-.6-.683.011-2.468,0-4.926,0-7.394,0-.368-.063-.735.525-.746.536-.01.746.168.672.693C185.391,37.573,185.423,37.626,185.433,37.678Zm2.142.179a2.164,2.164,0,0,0-.042,4.327,2.174,2.174,0,0,0,2.195-2.195A2.151,2.151,0,0,0,187.576,37.857Z" transform="translate(-164.882 -32.847)"/>
    <path id="Path_4" data-name="Path 4" class="cls-1" d="M261.508,42.627a3.127,3.127,0,0,1-4.39.063,3.43,3.43,0,0,1-.326-4.506c1.155-1.481,2.752-1.607,4.737-.357.084-.326-.042-.767.557-.735.641.032.683.021.683.672v4.989c0,.368.031.693-.5.7s-.756-.158-.7-.683A.313.313,0,0,0,261.508,42.627Zm.052-2.416A2.063,2.063,0,0,0,259.4,38.09a2.153,2.153,0,0,0,.052,4.306A2.072,2.072,0,0,0,261.561,40.211Z" transform="translate(-229.247 -33.07)"/>
    <path id="Path_5" data-name="Path 5" class="cls-1" d="M567.842,40.3c-.683,0-1.365-.01-2.048,0-.462.011-.515.116-.3.536a2.259,2.259,0,0,0,3.4.546.8.8,0,0,1,1.187.137c.137.2-.021.336-.126.462a3.094,3.094,0,0,1-1.743,1,3.418,3.418,0,0,1-3.781-1.617,3.476,3.476,0,0,1,.693-4.138,3.215,3.215,0,0,1,5.377,2.626c-.021.347-.189.452-.5.452-.714-.01-1.428,0-2.153,0Zm-.567-1.092h0c.525,0,1.05-.011,1.575.01.347.011.431-.116.315-.441a1.849,1.849,0,0,0-1.785-1.208,1.989,1.989,0,0,0-1.964,1.208c-.105.294-.021.441.294.441C566.225,39.211,566.75,39.211,567.275,39.211Z" transform="translate(-504.84 -32.563)"/>
    <path id="Path_6" data-name="Path 6" class="cls-1" d="M398.613,40.289c-.7,0-1.4.011-2.1,0-.389-.011-.452.116-.294.462a2.284,2.284,0,0,0,3.466.63.828.828,0,0,1,1.187.126c.126.189-.01.294-.1.41a3.327,3.327,0,0,1-3.592.977,2.973,2.973,0,0,1-2.3-2.594,3.209,3.209,0,0,1,2.941-3.886,3.174,3.174,0,0,1,3.476,3.434c-.01.347-.21.441-.525.441-.714-.011-1.439,0-2.153,0Zm-.62-1.092c.525,0,1.05-.011,1.575,0,.41.011.483-.168.326-.525a1.867,1.867,0,0,0-1.943-1.124,1.966,1.966,0,0,0-1.785,1.239c-.105.315,0,.41.3.41Z" transform="translate(-353.402 -32.548)"/>
    <path id="Path_7" data-name="Path 7" class="cls-1" d="M689.008,17.261a2.66,2.66,0,0,1,2.1-.819,2.35,2.35,0,0,1,2.3,2.458c.052,1.187,0,2.374.021,3.571.011.462-.273.483-.62.494-.368,0-.6-.063-.588-.515.021-1.029.01-2.058,0-3.1-.01-1.176-.483-1.733-1.481-1.743a1.6,1.6,0,0,0-1.722,1.743q-.031,1.5,0,2.993c.01.452-.147.62-.609.62s-.609-.158-.609-.609q.032-3.828,0-7.656c0-.473.189-.6.62-.6s.6.147.588.578C688.987,15.486,689.008,16.305,689.008,17.261Z" transform="translate(-615.608 -12.598)"/>
    <path id="Path_8" data-name="Path 8" class="cls-1" d="M334.271,42.978a3.188,3.188,0,0,1-3.2-2.51,3.307,3.307,0,0,1,1.68-3.77,3.264,3.264,0,0,1,4,.788c.158.189.483.389.126.693-.462.4-.714.41-1.04.032a2.05,2.05,0,0,0-2.479-.483,2.18,2.18,0,0,0-1.145,2.416,2.147,2.147,0,0,0,3.739.861c.378-.483.641,0,.924.137.357.168.137.41,0,.6A3.218,3.218,0,0,1,334.271,42.978Z" transform="translate(-296.254 -32.496)"/>
    <path id="Path_9" data-name="Path 9" class="cls-1" d="M633.169,43.08a2.443,2.443,0,0,1-1.985-1.1c-.136-.2-.284-.431.042-.557.284-.116.525-.63.924-.137a1.721,1.721,0,0,0,1.964.578.75.75,0,0,0,.557-.63.666.666,0,0,0-.483-.672c-.651-.3-1.386-.378-2.027-.714a1.632,1.632,0,0,1-.83-2.121,1.96,1.96,0,0,1,1.491-1.2,2.609,2.609,0,0,1,2.689.861c.126.179.326.41,0,.557-.273.126-.525.6-.882.158a1.458,1.458,0,0,0-1.313-.5c-.41.032-.767.168-.851.63s.252.651.609.8a18.85,18.85,0,0,1,1.88.641,1.688,1.688,0,0,1,.42,2.741A2.822,2.822,0,0,1,633.169,43.08Z" transform="translate(-564.8 -32.598)"/>
    <path id="Path_10" data-name="Path 10" class="cls-1" d="M129.954,43.076A2.671,2.671,0,0,1,127.581,42c-.147-.2-.3-.452.042-.6.284-.116.525-.609.914-.095a1.7,1.7,0,0,0,2.027.515.722.722,0,0,0,.473-.578.63.63,0,0,0-.389-.63,4.709,4.709,0,0,0-.725-.284,7.732,7.732,0,0,1-1.428-.515,1.713,1.713,0,0,1-.179-2.909,2.688,2.688,0,0,1,3.518.42c.137.179.389.42.053.609-.273.147-.546.62-.924.147a1.424,1.424,0,0,0-1.47-.452.718.718,0,0,0-.672.63.674.674,0,0,0,.494.714c.662.284,1.386.368,2.027.7a1.706,1.706,0,0,1,.2,2.92A2.533,2.533,0,0,1,129.954,43.076Z" transform="translate(-114.076 -32.595)"/>
  </g>
</svg>
