<svg id="thouch_id_icon_green" xmlns="http://www.w3.org/2000/svg" viewBox="0 0 18.48 18.441">
  <defs>
    <style>
      .cls-1 {
        fill: #03946b;
      }
    </style>
  </defs>
  <path id="Path_202" data-name="Path 202" class="cls-1" d="M181.732,357.894a.556.556,0,0,1-.445-.447.543.543,0,0,1,.14-.47,12.861,12.861,0,0,0,2.711-5.57,12.256,12.256,0,0,0,.251-1.837c.017-.294.034-.59.032-.884a1.632,1.632,0,0,0-3.254-.168c-.028.247-.015.5-.028.743a9.482,9.482,0,0,1-3.055,6.443c-.1.091-.2.177-.3.262a.541.541,0,1,1-.7-.826,8.411,8.411,0,0,0,2.146-2.764,8.166,8.166,0,0,0,.762-2.542,9.439,9.439,0,0,0,.074-1.156,2.718,2.718,0,0,1,5.4-.419,4.642,4.642,0,0,1,.025.93c-.013.3-.032.6-.06.9a13.816,13.816,0,0,1-2.679,6.945c-.149.2-.313.394-.464.594a.673.673,0,0,1-.39.262C181.846,357.894,181.789,357.894,181.732,357.894Z" transform="translate(-173.549 -339.453)"/>
  <path id="Path_203" data-name="Path 203" class="cls-1" d="M0,141.486c.017-.175.032-.349.049-.524A8.984,8.984,0,0,1,.743,138.3a9.155,9.155,0,0,1,1.948-2.879.536.536,0,0,1,.783-.006.525.525,0,0,1,.011.733,10.2,10.2,0,0,0-.832.973,8.138,8.138,0,0,0-1.5,3.69,7.028,7.028,0,0,0-.074,1.126.55.55,0,0,1-.456.592.538.538,0,0,1-.611-.4L0,142.106C0,141.9,0,141.693,0,141.486Z" transform="translate(0 -132.699)"/>
  <path id="Path_204" data-name="Path 204" class="cls-1" d="M791.415,141.838a.553.553,0,0,1-.4.4.543.543,0,0,1-.675-.549,8.908,8.908,0,0,0-.075-1.1,8.033,8.033,0,0,0-.592-2.125,8.117,8.117,0,0,0-1.7-2.512.542.542,0,0,1,.3-.937.536.536,0,0,1,.475.179,9.416,9.416,0,0,1,1.267,1.6,9.177,9.177,0,0,1,1.271,3.292,8.078,8.078,0,0,1,.123,1.046.63.63,0,0,0,.013.083C791.415,141.423,791.415,141.631,791.415,141.838Z" transform="translate(-772.936 -132.467)"/>
  <path id="Path_205" data-name="Path 205" class="cls-1" d="M245.668,0a.578.578,0,0,1,.362.251.52.52,0,0,1,.017.547.514.514,0,0,1-.479.281A8.277,8.277,0,0,0,243,1.491a8.4,8.4,0,0,0-1.3.562.525.525,0,0,1-.617-.045.531.531,0,0,1,.075-.888A8.135,8.135,0,0,1,242.278.6,9.3,9.3,0,0,1,244.71.036c.168-.015.336-.025.505-.036Z" transform="translate(-236.335)"/>
  <path id="Path_206" data-name="Path 206" class="cls-1" d="M503.664,124.39a19.006,19.006,0,0,1-.884,5.713c-.173.539-.368,1.069-.59,1.59a.543.543,0,0,1-.922.173.527.527,0,0,1-.083-.59,17.1,17.1,0,0,0,1.261-4.725c.068-.573.1-1.15.121-1.727a6.315,6.315,0,0,0-.339-2.391,5.992,5.992,0,0,0-4.484-3.862c-.185-.038-.371-.058-.558-.085a.54.54,0,1,1,.134-1.071,7.081,7.081,0,0,1,6.262,5.968A6.631,6.631,0,0,1,503.664,124.39Z" transform="translate(-487.344 -115.198)"/>
  <path id="Path_207" data-name="Path 207" class="cls-1" d="M94.6,307.156a.544.544,0,0,1,.211-.447,6.328,6.328,0,0,0,1.137-1.175,6.047,6.047,0,0,0,1.163-2.915,7.378,7.378,0,0,0,.043-.816,4.778,4.778,0,0,1,.42-1.946,4.928,4.928,0,0,1,.994-1.456.541.541,0,0,1,.769-.034.528.528,0,0,1,.011.781,3.811,3.811,0,0,0-1.046,2,3.97,3.97,0,0,0-.057.749,7.272,7.272,0,0,1-2.2,5.15,6.451,6.451,0,0,1-.618.537.473.473,0,0,1-.532.04A.516.516,0,0,1,94.6,307.156Z" transform="translate(-92.816 -292.599)"/>
  <path id="Path_208" data-name="Path 208" class="cls-1" d="M286.475,462.772a11.72,11.72,0,0,1-3.52,8.227.542.542,0,1,1-.766-.766,10.239,10.239,0,0,0,1.09-1.248,10.6,10.6,0,0,0,1.942-4.48,10.088,10.088,0,0,0,.162-1.752,1.221,1.221,0,0,1,.023-.262.54.54,0,0,1,1.058.034A1.02,1.02,0,0,1,286.475,462.772Z" transform="translate(-276.691 -453.361)"/>
  <path id="Path_209" data-name="Path 209" class="cls-1" d="M35.492,304.13a.565.565,0,0,1-.549-.326.517.517,0,0,1,.119-.6,4.4,4.4,0,0,0,.75-.892,3.91,3.91,0,0,0,.575-1.746c.023-.266.009-.534.028-.8a7.1,7.1,0,0,1,.545-2.3,6.369,6.369,0,0,1,.287-.594.542.542,0,0,1,1.026.2.534.534,0,0,1-.072.307,5.917,5.917,0,0,0-.628,1.827,5.287,5.287,0,0,0-.083.928,5.064,5.064,0,0,1-.788,2.8,4.879,4.879,0,0,1-.9,1.052A.549.549,0,0,1,35.492,304.13Z" transform="translate(-34.238 -290.982)"/>
  <path id="Path_210" data-name="Path 210" class="cls-1" d="M560.069,649.74a.521.521,0,0,1-.454-.277.512.512,0,0,1,.013-.547c.181-.294.364-.586.532-.89a14.905,14.905,0,0,0,1.5-3.92.589.589,0,0,1,.453-.517.536.536,0,0,1,.637.585,11.378,11.378,0,0,1-.407,1.537,16.478,16.478,0,0,1-1.733,3.69A.613.613,0,0,1,560.069,649.74Z" transform="translate(-548.991 -631.442)"/>
  <path id="Path_211" data-name="Path 211" class="cls-1" d="M416.291,230.5a4.873,4.873,0,0,1,3.437,1.416.513.513,0,0,1,.147.575.525.525,0,0,1-.462.364.543.543,0,0,1-.464-.183,3.64,3.64,0,0,0-.962-.686,3.82,3.82,0,0,0-1.378-.385,4.5,4.5,0,0,0-1.114.062.533.533,0,0,1-.62-.453.539.539,0,0,1,.424-.609c.166-.034.334-.058.5-.077A3.261,3.261,0,0,1,416.291,230.5Z" transform="translate(-407.044 -226.148)"/>
  <path id="Path_212" data-name="Path 212" class="cls-1" d="M220.074,122.384a.541.541,0,0,1,.151,1.067c-.168.043-.338.077-.5.126a6.036,6.036,0,0,0-2.529,1.493.539.539,0,0,1-.916-.224.521.521,0,0,1,.149-.534,7.031,7.031,0,0,1,3.526-1.912C220,122.391,220.046,122.387,220.074,122.384Z" transform="translate(-212.18 -120.076)"/>
  <path id="Path_213" data-name="Path 213" class="cls-1" d="M599.287,20.5a.613.613,0,0,1,.175.032,9.244,9.244,0,0,1,2.372,1.133.548.548,0,0,1,.264.569.541.541,0,0,1-.46.437.549.549,0,0,1-.409-.107,7.965,7.965,0,0,0-1.49-.784c-.207-.081-.419-.151-.628-.228a.54.54,0,0,1,.064-1.041C599.212,20.506,599.25,20.506,599.287,20.5Z" transform="translate(-587.453 -20.113)"/>
  <path id="Path_214" data-name="Path 214" class="cls-1" d="M683.081,394.9c.008.353-.017.7-.04,1.052a.541.541,0,0,1-.581.5.546.546,0,0,1-.5-.6c.034-.407.038-.815.036-1.222a3.359,3.359,0,0,0-.143-.947.629.629,0,0,1-.011-.432.554.554,0,0,1,.511-.353.542.542,0,0,1,.507.37,4.645,4.645,0,0,1,.2.975A6.371,6.371,0,0,1,683.081,394.9Z" transform="translate(-668.952 -385.491)"/>
</svg>
