<svg xmlns="http://www.w3.org/2000/svg" viewBox="0 0 122.127 22.123">
  <defs>
    <style>
      .cls-1 {
        fill: #00c28c;
      }
    </style>
  </defs>
  <g id="SM_logo_header" transform="translate(0.049 -0.023)">
    <path id="Path_1" data-name="Path 1" class="cls-1" d="M8.26,15.716c1.647,1.367,3.278,2.734,4.925,4.085.247.214.511.428.758.642a.915.915,0,0,1,.329,1.169.963.963,0,0,1-1.186.494c-1.334-.313-2.668-.593-4.019-.889-2.619-.576-5.238-1.169-7.873-1.746-.593-.132-1.153-.28-1.219-1-.082-.725.428-1,.972-1.252,1.136-.527,2.273-1.087,3.426-1.614.576-.264.527-.511.082-.856-.873-.725-1.746-1.449-2.6-2.174A1.5,1.5,0,0,1,1.8,10c.873-.791,1.762-1.565,2.668-2.339.445-.379.428-.609-.115-.873-1.219-.576-2.4-1.2-3.607-1.8A1.149,1.149,0,0,1-.041,3.775C.042,3.149.47,2.918,1.013,2.8Q6.992,1.444,12.971.1c.494-.115,1.021-.181,1.3.379.28.576-.132.922-.494,1.252C12.1,3.2,10.418,4.648,8.755,6.114c-.725.642-.708.659.132,1.087,1.861.939,3.722,1.878,5.584,2.8.56.28,1.071.576,1.087,1.318,0,.774-.544,1.071-1.136,1.351-1.779.84-3.574,1.68-5.353,2.536A1.562,1.562,0,0,0,8.26,15.716Zm5.024-4.447C11.11,10.182,9.068,9.161,7.042,8.14a.581.581,0,0,0-.741.115c-.988.873-1.976,1.746-2.965,2.6-.329.28-.313.527.033.807.642.511,1.252,1.071,1.894,1.565,1.812,1.433,1.087,1.367,3.179.412.972-.445,1.944-.906,2.9-1.367A9.977,9.977,0,0,0,13.284,11.269ZM2.743,4.121c1.235.626,2.289,1.136,3.327,1.664a.5.5,0,0,0,.609-.049C7.865,4.7,9.051,3.643,10.237,2.606c-.033-.049-.066-.115-.1-.165C7.733,2.984,5.345,3.528,2.743,4.121ZM10.27,19.768l.1-.148c-1.2-.988-2.388-1.976-3.591-2.965a.521.521,0,0,0-.609-.082c-1.021.494-2.059.972-3.261,1.548C5.493,18.7,7.882,19.224,10.27,19.768Z" transform="translate(0 0)"/>
    <path id="Path_2" data-name="Path 2" class="cls-1" d="M468.935,37.471c1.976-1.565,3.673-1.548,5.32.033.379.362.461.1.692-.1a3.711,3.711,0,0,1,6.193,1.482,5.4,5.4,0,0,1,.231,1.532c.033,1.729-.016,3.459.016,5.188.016.741-.3.939-.988.939-.659,0-.939-.2-.922-.906.033-1.762.033-3.508,0-5.271a2.042,2.042,0,0,0-2.586-2.191,2.316,2.316,0,0,0-1.746,2.471c-.033,1.614-.033,3.245,0,4.859.016.725-.181,1.038-.972,1.038-.824,0-.955-.362-.939-1.071.033-1.614.016-3.245,0-4.859,0-1.631-.626-2.438-1.878-2.487a2.32,2.32,0,0,0-2.471,2.487c-.049,1.614-.016,3.245-.016,4.859,0,.972-.132,1.054-1.1,1.038-.626,0-.791-.28-.791-.856.017-2.685,0-5.386.017-8.071,0-.4-.181-.972.511-1C468.111,36.581,468.9,36.318,468.935,37.471Z" transform="translate(-390.097 -30.303)"/>
    <path id="Path_3" data-name="Path 3" class="cls-1" d="M186.144,38.22c2.7-1.993,5.254-1.993,7.115,0a5.438,5.438,0,0,1,.2,7.148c-1.828,2.158-4.315,2.256-7.4.214,0,1.416-.033,2.784.016,4.134.016.708-.165,1.021-.955,1.021-.84,0-.939-.4-.939-1.071.016-3.871,0-7.725,0-11.6,0-.576-.1-1.153.824-1.169.84-.016,1.169.264,1.054,1.087C186.079,38.055,186.128,38.137,186.144,38.22Zm3.36.28a3.394,3.394,0,0,0-.066,6.786,3.41,3.41,0,0,0,3.442-3.442A3.374,3.374,0,0,0,189.5,38.5Z" transform="translate(-153.886 -30.656)"/>
    <path id="Path_4" data-name="Path 4" class="cls-1" d="M264.582,45.839a4.9,4.9,0,0,1-6.885.1,5.38,5.38,0,0,1-.511-7.066c1.812-2.322,4.315-2.52,7.428-.56.132-.511-.066-1.2.873-1.153,1,.049,1.071.033,1.071,1.054v7.824c0,.576.049,1.087-.791,1.1-.824.016-1.186-.247-1.1-1.071A.491.491,0,0,0,264.582,45.839Zm.082-3.788a3.235,3.235,0,0,0-3.393-3.327,3.377,3.377,0,0,0,.082,6.753A3.249,3.249,0,0,0,264.664,42.051Z" transform="translate(-213.959 -30.864)"/>
    <path id="Path_5" data-name="Path 5" class="cls-1" d="M570.007,42.517c-1.071,0-2.141-.016-3.212,0-.725.016-.807.181-.478.84a3.543,3.543,0,0,0,5.337.856,1.261,1.261,0,0,1,1.861.214c.214.313-.033.527-.2.725a4.852,4.852,0,0,1-2.734,1.565,5.361,5.361,0,0,1-5.929-2.536,5.451,5.451,0,0,1,1.087-6.489,5.042,5.042,0,0,1,8.433,4.118c-.033.544-.3.708-.791.708-1.12-.016-2.24,0-3.377,0Zm-.889-1.713h0c.824,0,1.647-.016,2.471.016.544.016.675-.181.494-.692a2.9,2.9,0,0,0-2.8-1.894,3.12,3.12,0,0,0-3.08,1.894c-.165.461-.033.692.461.692C567.47,40.8,568.294,40.8,569.117,40.8Z" transform="translate(-471.174 -30.391)"/>
    <path id="Path_6" data-name="Path 6" class="cls-1" d="M400.766,42.5c-1.1,0-2.191.016-3.294,0-.609-.016-.708.181-.461.725a3.581,3.581,0,0,0,5.435.988,1.3,1.3,0,0,1,1.861.2c.2.3-.017.461-.165.642a5.218,5.218,0,0,1-5.633,1.532A4.663,4.663,0,0,1,394.9,42.52a5.032,5.032,0,0,1,4.612-6.094c3.162-.362,5.518,2.191,5.452,5.386-.017.544-.329.692-.824.692-1.12-.016-2.257,0-3.377,0Zm-.972-1.713c.824,0,1.647-.016,2.471,0,.642.016.758-.264.511-.824a2.929,2.929,0,0,0-3.047-1.762,3.083,3.083,0,0,0-2.8,1.944c-.165.494,0,.642.478.642Z" transform="translate(-329.834 -30.378)"/>
    <path id="Path_7" data-name="Path 7" class="cls-1" d="M689.694,19.058a4.171,4.171,0,0,1,3.294-1.285,3.686,3.686,0,0,1,3.607,3.854c.082,1.861,0,3.722.033,5.6.016.725-.428.758-.972.774-.576,0-.939-.1-.922-.807.033-1.614.017-3.228,0-4.859-.016-1.845-.758-2.718-2.322-2.734a2.5,2.5,0,0,0-2.7,2.734q-.049,2.347,0,4.694c.016.708-.231.972-.955.972-.708,0-.955-.247-.955-.955q.049-6,0-12.007c0-.741.3-.939.972-.939s.939.231.922.906C689.661,16.274,689.694,17.559,689.694,19.058Z" transform="translate(-574.555 -11.758)"/>
    <path id="Path_8" data-name="Path 8" class="cls-1" d="M336.146,46.754a5,5,0,0,1-5.024-3.937,5.186,5.186,0,0,1,2.635-5.913,5.119,5.119,0,0,1,6.275,1.235c.247.3.758.609.2,1.087-.725.626-1.12.642-1.631.049a3.216,3.216,0,0,0-3.887-.758,3.418,3.418,0,0,0-1.8,3.788,3.368,3.368,0,0,0,5.864,1.351c.593-.758,1,0,1.449.214.56.264.214.642,0,.939A5.047,5.047,0,0,1,336.146,46.754Z" transform="translate(-276.497 -30.329)"/>
    <path id="Path_9" data-name="Path 9" class="cls-1" d="M634.385,46.849a3.831,3.831,0,0,1-3.113-1.729c-.214-.313-.445-.675.066-.873.445-.181.824-.988,1.449-.214a2.7,2.7,0,0,0,3.08.906,1.176,1.176,0,0,0,.873-.988,1.045,1.045,0,0,0-.758-1.054c-1.021-.478-2.174-.593-3.179-1.12a2.56,2.56,0,0,1-1.3-3.327,3.074,3.074,0,0,1,2.339-1.878,4.092,4.092,0,0,1,4.216,1.351c.2.28.511.642,0,.873-.428.2-.824.939-1.384.247a2.287,2.287,0,0,0-2.059-.791c-.642.049-1.2.264-1.334.988-.115.725.4,1.021.955,1.252a29.564,29.564,0,0,1,2.948,1,2.647,2.647,0,0,1,.659,4.3C637.02,46.618,636,46.849,634.385,46.849Z" transform="translate(-527.135 -30.424)"/>
    <path id="Path_10" data-name="Path 10" class="cls-1" d="M131.4,46.846a4.189,4.189,0,0,1-3.722-1.68c-.231-.313-.478-.708.066-.939.445-.181.824-.955,1.433-.148a2.669,2.669,0,0,0,3.179.807,1.132,1.132,0,0,0,.741-.906.988.988,0,0,0-.609-.988,7.384,7.384,0,0,0-1.136-.445,12.126,12.126,0,0,1-2.24-.807,2.686,2.686,0,0,1-.28-4.562,4.216,4.216,0,0,1,5.518.659c.214.28.609.659.082.955-.428.231-.856.972-1.449.231a2.233,2.233,0,0,0-2.306-.708,1.125,1.125,0,0,0-1.054.988,1.057,1.057,0,0,0,.774,1.12c1.038.445,2.174.576,3.179,1.1a2.675,2.675,0,0,1,.313,4.579A3.973,3.973,0,0,1,131.4,46.846Z" transform="translate(-106.469 -30.421)"/>
  </g>
</svg>
